<svg xmlns="http://www.w3.org/2000/svg" viewBox="0 0 1000 1000" width="1000" height="1000"><defs><linearGradient id="sl_solid" gradientUnits="userSpaceOnUse" x1="120" y1="0" x2="900" y2="0"><stop offset="0" stop-color="#1E40AF"></stop><stop offset="1" stop-color="#2F8FE0"></stop></linearGradient><linearGradient id="sl_sg" gradientUnits="userSpaceOnUse" x1="120" y1="0" x2="900" y2="0"><stop offset="0" stop-color="#000"></stop><stop offset="0.18" stop-color="#000"></stop><stop offset="0.80" stop-color="#fff"></stop><stop offset="1" stop-color="#fff"></stop></linearGradient><linearGradient id="sl_kg" gradientUnits="userSpaceOnUse" x1="120" y1="0" x2="900" y2="0"><stop offset="0" stop-color="#aaaaaa"></stop><stop offset="0.06" stop-color="#fff"></stop><stop offset="0.16" stop-color="#fff"></stop><stop offset="0.80" stop-color="#000"></stop><stop offset="1" stop-color="#000"></stop></linearGradient><linearGradient id="sl_pg" gradientUnits="userSpaceOnUse" x1="120" y1="0" x2="900" y2="0"><stop offset="0" stop-color="#fff"></stop><stop offset="0.34" stop-color="#fff"></stop><stop offset="0.6" stop-color="#000"></stop><stop offset="1" stop-color="#000"></stop></linearGradient><mask id="sl_mSolid"><rect width="1000" height="1000" fill="url(#sl_sg)"></rect></mask><mask id="sl_mSketch"><rect width="1000" height="1000" fill="url(#sl_kg)"></rect></mask><mask id="sl_mPaper"><rect width="1000" height="1000" fill="url(#sl_pg)"></rect></mask></defs><g mask="url(#sl_mPaper)"><g stroke="#3B82F6" stroke-width="1.1" stroke-opacity="0.14"><line x1="578" y1="40" x2="578" y2="960"></line><line x1="608" y1="40" x2="608" y2="960"></line><line x1="638" y1="40" x2="638" y2="960"></line><line x1="668" y1="40" x2="668" y2="960"></line><line x1="728" y1="40" x2="728" y2="960"></line><line x1="758" y1="40" x2="758" y2="960"></line><line x1="788" y1="40" x2="788" y2="960"></line><line x1="818" y1="40" x2="818" y2="960"></line><line x1="878" y1="40" x2="878" y2="960"></line><line x1="908" y1="40" x2="908" y2="960"></line><line x1="938" y1="40" x2="938" y2="960"></line><line x1="518" y1="40" x2="518" y2="960"></line><line x1="488" y1="40" x2="488" y2="960"></line><line x1="458" y1="40" x2="458" y2="960"></line><line x1="428" y1="40" x2="428" y2="960"></line><line x1="368" y1="40" x2="368" y2="960"></line><line x1="338" y1="40" x2="338" y2="960"></line><line x1="308" y1="40" x2="308" y2="960"></line><line x1="278" y1="40" x2="278" y2="960"></line><line x1="218" y1="40" x2="218" y2="960"></line><line x1="188" y1="40" x2="188" y2="960"></line><line x1="158" y1="40" x2="158" y2="960"></line><line x1="128" y1="40" x2="128" y2="960"></line><line x1="68" y1="40" x2="68" y2="960"></line><line x1="40" y1="590" x2="960" y2="590"></line><line x1="40" y1="620" x2="960" y2="620"></line><line x1="40" y1="650" x2="960" y2="650"></line><line x1="40" y1="680" x2="960" y2="680"></line><line x1="40" y1="740" x2="960" y2="740"></line><line x1="40" y1="770" x2="960" y2="770"></line><line x1="40" y1="800" x2="960" y2="800"></line><line x1="40" y1="830" x2="960" y2="830"></line><line x1="40" y1="890" x2="960" y2="890"></line><line x1="40" y1="920" x2="960" y2="920"></line><line x1="40" y1="950" x2="960" y2="950"></line><line x1="40" y1="530" x2="960" y2="530"></line><line x1="40" y1="500" x2="960" y2="500"></line><line x1="40" y1="470" x2="960" y2="470"></line><line x1="40" y1="440" x2="960" y2="440"></line><line x1="40" y1="380" x2="960" y2="380"></line><line x1="40" y1="350" x2="960" y2="350"></line><line x1="40" y1="320" x2="960" y2="320"></line><line x1="40" y1="290" x2="960" y2="290"></line><line x1="40" y1="230" x2="960" y2="230"></line><line x1="40" y1="200" x2="960" y2="200"></line><line x1="40" y1="170" x2="960" y2="170"></line><line x1="40" y1="140" x2="960" y2="140"></line><line x1="40" y1="80" x2="960" y2="80"></line><line x1="40" y1="50" x2="960" y2="50"></line></g><g stroke="#2F6BFF" stroke-width="1.6" stroke-opacity="0.26"><line x1="548" y1="40" x2="548" y2="960"></line><line x1="698" y1="40" x2="698" y2="960"></line><line x1="848" y1="40" x2="848" y2="960"></line><line x1="398" y1="40" x2="398" y2="960"></line><line x1="248" y1="40" x2="248" y2="960"></line><line x1="98" y1="40" x2="98" y2="960"></line><line x1="40" y1="560" x2="960" y2="560"></line><line x1="40" y1="710" x2="960" y2="710"></line><line x1="40" y1="860" x2="960" y2="860"></line><line x1="40" y1="410" x2="960" y2="410"></line><line x1="40" y1="260" x2="960" y2="260"></line><line x1="40" y1="110" x2="960" y2="110"></line></g></g><g mask="url(#sl_mSketch)"><g stroke="#6E8FCC" stroke-width="2" stroke-opacity="0.7"><line x1="286" y1="368" x2="314" y2="368"></line><line x1="300" y1="354" x2="300" y2="382"></line></g><circle cx="300" cy="368" r="140" fill="none" stroke="#6E8FCC" stroke-width="1.6" stroke-dasharray="4 7" stroke-opacity="0.5"></circle><g stroke="#6E8FCC" stroke-width="2" stroke-opacity="0.7"><line x1="534" y1="560" x2="562" y2="560"></line><line x1="548" y1="546" x2="548" y2="574"></line></g><circle cx="548" cy="560" r="216" fill="none" stroke="#6E8FCC" stroke-width="1.6" stroke-dasharray="4 7" stroke-opacity="0.32"></circle><g stroke="#6E8FCC" stroke-width="2" stroke-opacity="0.7"><line x1="786" y1="380" x2="814" y2="380"></line><line x1="800" y1="366" x2="800" y2="394"></line></g></g><g mask="url(#sl_mSketch)"><path d="M300,228 C319.6,348.4 319.6,348.4 440,368 C319.6,387.6 319.6,387.6 300,508 C280.4,387.6 280.4,387.6 160,368 C280.4,348.4 280.4,348.4 300,228 Z" fill="none" stroke="#2F6BFF" stroke-width="4.2" stroke-linejoin="round"></path><path d="M548,344 C578.24,529.76 578.24,529.76 764,560 C578.24,590.24 578.24,590.24 548,776 C517.76,590.24 517.76,590.24 332,560 C517.76,529.76 517.76,529.76 548,344 Z" fill="none" stroke="#2F6BFF" stroke-width="5" stroke-linejoin="round"></path><path d="M800,268 C815.68,364.32 815.68,364.32 912,380 C815.68,395.68 815.68,395.68 800,492 C784.32,395.68 784.32,395.68 688,380 C784.32,364.32 784.32,364.32 800,268 Z" fill="none" stroke="#2F6BFF" stroke-width="3.6" stroke-linejoin="round"></path></g><g mask="url(#sl_mSolid)"><path d="M300,228 C319.6,348.4 319.6,348.4 440,368 C319.6,387.6 319.6,387.6 300,508 C280.4,387.6 280.4,387.6 160,368 C280.4,348.4 280.4,348.4 300,228 Z" fill="url(#sl_solid)"></path><path d="M548,344 C578.24,529.76 578.24,529.76 764,560 C578.24,590.24 578.24,590.24 548,776 C517.76,590.24 517.76,590.24 332,560 C517.76,529.76 517.76,529.76 548,344 Z" fill="url(#sl_solid)"></path><path d="M800,268 C815.68,364.32 815.68,364.32 912,380 C815.68,395.68 815.68,395.68 800,492 C784.32,395.68 784.32,395.68 688,380 C784.32,364.32 784.32,364.32 800,268 Z" fill="url(#sl_solid)"></path></g></svg>