<svg xmlns="http://www.w3.org/2000/svg" viewBox="3.22 -146.31 850.23 188.31" width="850" height="188" fill="none"><defs><linearGradient id="sg" gradientUnits="userSpaceOnUse" x1="7.22" y1="0" x2="849.45" y2="0"><stop offset="0" stop-color="#3E7BFF"/><stop offset="1" stop-color="#34E0F0"/></linearGradient></defs><path d="M57.57 2.28Q40.09 2.28 27.93 -3.7Q15.77 -9.69 7.22 -19.19L26.22 -38.38Q39.71 -23.18 59.47 -23.18Q70.11 -23.18 75.24 -27.55Q80.37 -31.92 80.37 -39.14Q80.37 -44.65 77.33 -48.36Q74.29 -52.06 64.98 -53.39L51.87 -55.1Q30.78 -57.76 21 -67.83Q11.21 -77.9 11.21 -94.62Q11.21 -103.55 14.63 -110.96Q18.05 -118.37 24.41 -123.69Q30.78 -129.01 40 -131.95Q49.21 -134.9 60.99 -134.9Q76 -134.9 87.4 -130.15Q98.8 -125.4 106.97 -116.28L87.78 -96.9Q83.03 -102.41 76.28 -105.92Q69.54 -109.44 59.28 -109.44Q49.59 -109.44 44.84 -106.02Q40.09 -102.6 40.09 -96.52Q40.09 -89.68 43.8 -86.64Q47.5 -83.6 55.86 -82.27L68.97 -80.18Q89.49 -76.95 99.37 -67.55Q109.25 -58.14 109.25 -40.85Q109.25 -31.35 105.83 -23.37Q102.41 -15.39 95.85 -9.69Q89.3 -3.99 79.61 -0.85Q69.92 2.28 57.57 2.28Z M125.67 -99.75H153.79V-83.03H154.74Q156.83 -91.39 164.34 -96.71Q171.84 -102.03 181.53 -102.03Q200.53 -102.03 210.22 -88.73Q219.91 -75.43 219.91 -49.97Q219.91 -24.51 210.22 -11.12Q200.53 2.28 181.53 2.28Q176.59 2.28 172.22 0.86Q167.85 -0.57 164.33 -3.14Q160.82 -5.7 158.35 -9.21Q155.88 -12.73 154.74 -16.72H153.79V38H125.67ZM172.22 -20.52Q180.2 -20.52 185.43 -26.12Q190.65 -31.73 190.65 -41.23V-58.52Q190.65 -68.02 185.43 -73.62Q180.2 -79.23 172.22 -79.23Q164.24 -79.23 159.02 -75.34Q153.79 -71.44 153.79 -64.6V-35.15Q153.79 -28.31 159.02 -24.41Q164.24 -20.52 172.22 -20.52Z M308.91 0Q301.31 0 296.27 -4.75Q291.24 -9.5 289.91 -17.48H288.77Q286.49 -7.79 278.7 -2.75Q270.91 2.28 259.51 2.28Q244.5 2.28 236.52 -5.7Q228.54 -13.68 228.54 -26.79Q228.54 -42.56 240.04 -50.26Q251.53 -57.95 271.29 -57.95H287.06V-64.22Q287.06 -71.44 283.26 -75.72Q279.46 -79.99 270.53 -79.99Q262.17 -79.99 257.23 -76.38Q252.29 -72.77 249.06 -68.21L232.34 -83.03Q238.42 -91.96 247.64 -97Q256.85 -102.03 272.62 -102.03Q293.9 -102.03 304.54 -92.72Q315.18 -83.41 315.18 -65.55V-21.85H324.49V0ZM269.96 -17.29Q276.99 -17.29 282.02 -20.33Q287.06 -23.37 287.06 -30.21V-41.99H273.38Q256.85 -41.99 256.85 -30.78V-27.93Q256.85 -22.42 260.27 -19.86Q263.69 -17.29 269.96 -17.29Z M337.3 0V-99.75H365.42V-78.09H366.37Q367.13 -82.27 369.03 -86.16Q370.93 -90.06 374.06 -93.1Q377.2 -96.14 381.57 -97.94Q385.94 -99.75 391.83 -99.75H396.77V-73.53H389.74Q377.39 -73.53 371.4 -70.3Q365.42 -67.07 365.42 -58.33V0Z M408.06 -140.6H436.18V-57.57H437.32L449.67 -76L469.62 -99.75H500.78L467.53 -61.56L504.58 0H471.14L448.72 -42.18L436.18 -28.12V0H408.06Z M539.62 0Q525.18 0 518.44 -7.03Q511.69 -14.06 511.69 -27.36V-140.6H539.81V-21.85H552.35V0Z M604.87 2.28Q593.47 2.28 584.54 -1.42Q575.61 -5.13 569.44 -11.88Q563.26 -18.62 560.13 -28.31Q556.99 -38 556.99 -49.97Q556.99 -61.75 560.03 -71.34Q563.07 -80.94 569.06 -87.78Q575.04 -94.62 583.78 -98.33Q592.52 -102.03 603.73 -102.03Q616.08 -102.03 624.92 -97.85Q633.75 -93.67 639.36 -86.64Q644.96 -79.61 647.53 -70.39Q650.09 -61.18 650.09 -51.11V-42.75H586.06V-41.23Q586.06 -31.35 591.38 -25.55Q596.7 -19.76 608.1 -19.76Q616.84 -19.76 622.35 -23.27Q627.86 -26.79 632.61 -31.73L646.67 -14.25Q640.02 -6.46 629.29 -2.09Q618.55 2.28 604.87 2.28ZM604.3 -81.32Q595.75 -81.32 590.91 -75.72Q586.06 -70.11 586.06 -60.8V-59.28H621.02V-60.99Q621.02 -70.11 616.94 -75.72Q612.85 -81.32 604.3 -81.32Z M680.38 2.09Q671.83 2.09 667.75 -2.19Q663.66 -6.46 663.66 -13.11V-16.91Q663.66 -23.56 667.75 -27.84Q671.83 -32.11 680.38 -32.11Q688.93 -32.11 693.02 -27.84Q697.1 -23.56 697.1 -16.91V-13.11Q697.1 -6.46 693.02 -2.19Q688.93 2.09 680.38 2.09Z M790.66 0Q783.06 0 778.03 -4.75Q772.99 -9.5 771.66 -17.48H770.52Q768.24 -7.79 760.45 -2.75Q752.66 2.28 741.26 2.28Q726.25 2.28 718.27 -5.7Q710.29 -13.68 710.29 -26.79Q710.29 -42.56 721.79 -50.26Q733.28 -57.95 753.04 -57.95H768.81V-64.22Q768.81 -71.44 765.01 -75.72Q761.21 -79.99 752.28 -79.99Q743.92 -79.99 738.98 -76.38Q734.04 -72.77 730.81 -68.21L714.09 -83.03Q720.17 -91.96 729.39 -97Q738.6 -102.03 754.37 -102.03Q775.65 -102.03 786.29 -92.72Q796.93 -83.41 796.93 -65.55V-21.85H806.24V0ZM751.71 -17.29Q758.74 -17.29 763.78 -20.33Q768.81 -23.37 768.81 -30.21V-41.99H755.13Q738.6 -41.99 738.6 -30.78V-27.93Q738.6 -22.42 742.02 -19.86Q745.44 -17.29 751.71 -17.29Z M833.11 -110.39Q824.56 -110.39 820.67 -114.28Q816.77 -118.18 816.77 -124.26V-128.44Q816.77 -134.52 820.67 -138.42Q824.56 -142.31 833.11 -142.31Q841.66 -142.31 845.56 -138.42Q849.45 -134.52 849.45 -128.44V-124.26Q849.45 -118.18 845.56 -114.28Q841.66 -110.39 833.11 -110.39ZM819.05 -99.75H847.17V0H819.05Z" fill="url(#sg)"/></svg>
