<svg xmlns="http://www.w3.org/2000/svg" viewBox="0 0 1480 470" width="1480" height="470"><defs><linearGradient id="xd_solid" gradientUnits="userSpaceOnUse" x1="160" y1="0" x2="1240" y2="0"><stop offset="0" stop-color="#3E7BFF"></stop><stop offset="1" stop-color="#34E0F0"></stop></linearGradient><linearGradient id="xd_sg" gradientUnits="userSpaceOnUse" x1="160" y1="0" x2="1240" y2="0"><stop offset="0" stop-color="#000"></stop><stop offset="0.16" stop-color="#000"></stop><stop offset="0.74" stop-color="#fff"></stop><stop offset="1" stop-color="#fff"></stop></linearGradient><linearGradient id="xd_kg" gradientUnits="userSpaceOnUse" x1="160" y1="0" x2="1240" y2="0"><stop offset="0" stop-color="#a8a8a8"></stop><stop offset="0.08" stop-color="#fff"></stop><stop offset="0.18" stop-color="#fff"></stop><stop offset="0.74" stop-color="#000"></stop><stop offset="1" stop-color="#000"></stop></linearGradient><linearGradient id="xd_pg" gradientUnits="userSpaceOnUse" x1="160" y1="0" x2="1240" y2="0"><stop offset="0" stop-color="#fff"></stop><stop offset="0.34" stop-color="#fff"></stop><stop offset="0.62" stop-color="#000"></stop><stop offset="1" stop-color="#000"></stop></linearGradient><mask id="xd_mSolid"><rect width="1480" height="470" fill="url(#xd_sg)"></rect></mask><mask id="xd_mSketch"><rect width="1480" height="470" fill="url(#xd_kg)"></rect></mask><mask id="xd_mPaper"><rect width="1480" height="470" fill="url(#xd_pg)"></rect></mask></defs><rect width="1480" height="470" fill="#0A1A3F"></rect><g mask="url(#xd_mPaper)"><g stroke="#5C93F0" stroke-width="1" stroke-opacity="0.18"><line x1="216" y1="118" x2="216" y2="392"></line><line x1="237" y1="118" x2="237" y2="392"></line><line x1="258" y1="118" x2="258" y2="392"></line><line x1="279" y1="118" x2="279" y2="392"></line><line x1="321" y1="118" x2="321" y2="392"></line><line x1="342" y1="118" x2="342" y2="392"></line><line x1="363" y1="118" x2="363" y2="392"></line><line x1="384" y1="118" x2="384" y2="392"></line><line x1="426" y1="118" x2="426" y2="392"></line><line x1="447" y1="118" x2="447" y2="392"></line><line x1="468" y1="118" x2="468" y2="392"></line><line x1="489" y1="118" x2="489" y2="392"></line><line x1="531" y1="118" x2="531" y2="392"></line><line x1="552" y1="118" x2="552" y2="392"></line><line x1="573" y1="118" x2="573" y2="392"></line><line x1="594" y1="118" x2="594" y2="392"></line><line x1="636" y1="118" x2="636" y2="392"></line><line x1="657" y1="118" x2="657" y2="392"></line><line x1="678" y1="118" x2="678" y2="392"></line><line x1="699" y1="118" x2="699" y2="392"></line><line x1="741" y1="118" x2="741" y2="392"></line><line x1="762" y1="118" x2="762" y2="392"></line><line x1="783" y1="118" x2="783" y2="392"></line><line x1="804" y1="118" x2="804" y2="392"></line><line x1="846" y1="118" x2="846" y2="392"></line><line x1="867" y1="118" x2="867" y2="392"></line><line x1="888" y1="118" x2="888" y2="392"></line><line x1="174" y1="118" x2="174" y2="392"></line><line x1="153" y1="118" x2="153" y2="392"></line><line x1="132" y1="118" x2="132" y2="392"></line><line x1="111" y1="118" x2="111" y2="392"></line><line x1="70" y1="321" x2="900" y2="321"></line><line x1="70" y1="342" x2="900" y2="342"></line><line x1="70" y1="363" x2="900" y2="363"></line><line x1="70" y1="384" x2="900" y2="384"></line><line x1="70" y1="279" x2="900" y2="279"></line><line x1="70" y1="258" x2="900" y2="258"></line><line x1="70" y1="237" x2="900" y2="237"></line><line x1="70" y1="216" x2="900" y2="216"></line><line x1="70" y1="174" x2="900" y2="174"></line><line x1="70" y1="153" x2="900" y2="153"></line><line x1="70" y1="132" x2="900" y2="132"></line></g><g stroke="#7FB0F5" stroke-width="1.4" stroke-opacity="0.32"><line x1="195" y1="118" x2="195" y2="392"></line><line x1="300" y1="118" x2="300" y2="392"></line><line x1="405" y1="118" x2="405" y2="392"></line><line x1="510" y1="118" x2="510" y2="392"></line><line x1="615" y1="118" x2="615" y2="392"></line><line x1="720" y1="118" x2="720" y2="392"></line><line x1="825" y1="118" x2="825" y2="392"></line><line x1="90" y1="118" x2="90" y2="392"></line><line x1="70" y1="300" x2="900" y2="300"></line><line x1="70" y1="195" x2="900" y2="195"></line></g></g><g mask="url(#xd_mSketch)"><line x1="70" y1="163.20000000000002" x2="820" y2="163.20000000000002" stroke="#7FA8E8" stroke-width="1.7" stroke-dasharray="2 8" stroke-opacity="0.7"></line><line x1="70" y1="300" x2="820" y2="300" stroke="#7FA8E8" stroke-width="1.7" stroke-dasharray="2 8" stroke-opacity="0.7"></line><text x="195" y="300" font-family="&#39;PJS&#39;,sans-serif" font-weight="800" font-size="190" letter-spacing="-7" fill="none" stroke="#A7C7FF" stroke-width="3.4" stroke-linejoin="round">Sparkle.ai</text></g><g mask="url(#xd_mSolid)"><text x="195" y="300" font-family="&#39;PJS&#39;,sans-serif" font-weight="800" font-size="190" letter-spacing="-7" fill="url(#xd_solid)">Sparkle.ai</text></g></svg>